<?xml version="1.0"?>
<!-- Created with xTool Creative Space (https://www.xtool.com/pages/software) -->
<svg xmlns="http://www.w3.org/2000/svg" xmlns:xlink="http://www.w3.org/1999/xlink" xmlns:xcs="https://www.xtool.com/pages/software" version="1.1" preserveAspectRatio="xMinYMin meet" width="89.29998779296878mm" height="59.299975157056764mm" viewBox="165.10944944347585 59.27527687866795 89.29998779296878 59.299975157056764"><style></style>
<path transform="matrix(1,0,0,1,-38.525796,-42.105266)" stroke="#fe0002" fill="none" vector-effect="non-scaling-stroke" data-view-type="laser" data-name="path16" d="m 206.03532,160.68058 h 12.9 c -0.07,-5.80214 0.0168,-0.17262 0,-8.115 h 3.186 l -0.032,-3.685 h -3.154 v -38.8 h 58.6 v 38.8 h -3.355 c 0.0812,1.20417 0.001,2.48462 0,3.685 h 3.355 c 0.004,0.2731 0,8.115 0,8.115 h 12.9 c -0.0566,-5.20516 0.19578,-0.94728 0,-8.115 h 2.5 v -3.685 h -2.5 v -47.5 h -84.4 v 47.5 h -2.4 l 0.022,3.685 2.378,0.0106 v 2.87797 2.77854 z" fill-rule="nonzero"></path><path transform="matrix(9.4941e-16,1,-1,9.4941e-16,339.550781,-169.330468)" stroke="#fe0002" fill="none" vector-effect="non-scaling-stroke" data-view-type="laser" data-name="path15" d="m 267.4923,111.55794 -25.21358,0.32538 -2.1e-4,-0.0207 -2.6772,0.0284 0.10212,9.67742 2.54285,-0.0269 0.18574,24.44906 1.5e-4,0.0145 -2.64071,0.0589 0.10212,9.6769 2.71306,-0.0586 1e-4,0.01 24.79165,-0.18462 0.0234,-10.98733 c -11.53357,-0.90977 -11.43271,-4.69873 -11.39306,-10.5098 -0.053,-4.60965 -0.1673,-10.65714 11.43997,-11.46488 z" fill-rule="nonzero"></path><path transform="matrix(-1,-1.89882e-15,1.89882e-15,-1,457.04334,269.252847)" stroke="#fe0002" fill="none" vector-effect="non-scaling-stroke" data-view-type="laser" data-name="path17" d="m 241.05398,170.85172 v -9.54025 h -3.575 v -3.63 h 3.57508 11.82492 4.21 v 3.63 h -4.21 v 9.54 z" fill-rule="nonzero"></path><rect transform="matrix(-0.999997,0.00254523,-0.00265349,-0.999996,249.144377,115.998469)" stroke="#000000" fill="none" vector-effect="non-scaling-stroke" data-view-type="laser" data-name="rect11" x="0" y="0" width="7.742232958542559" height="2.8432262436242577"></rect><rect transform="matrix(-0.999997,0.00254518,-0.00265391,-0.999996,177.919377,115.998444)" stroke="#000000" fill="none" vector-effect="non-scaling-stroke" data-view-type="laser" data-name="rect10" x="0" y="0" width="7.742231050208642" height="2.8432267236296713"></rect><path transform="matrix(9.4941e-16,1,-1,9.4941e-16,339.550781,-169.330468)" stroke="#000000" fill="none" vector-effect="non-scaling-stroke" data-view-type="laser" data-name="path6" d="m 257.18713,116.89707 a 1.8011094,1.8011093 89.395194 0 0 -1.81959,-1.78212 1.8011094,1.8011093 89.395194 0 0 -1.78212,1.82009 1.8011094,1.8011093 89.395194 0 0 1.8201,1.78212 1.8011094,1.8011093 89.395194 0 0 1.78161,-1.82009 z" fill-rule="nonzero"></path><path transform="matrix(9.4941e-16,1,-1,9.4941e-16,339.550781,-169.330468)" stroke="#000000" fill="none" vector-effect="non-scaling-stroke" data-view-type="laser" data-name="path7" d="m 257.18763,148.35153 a 1.8011094,1.8011093 89.395194 0 0 -1.82009,-1.78211 1.8011094,1.8011093 89.395194 0 0 -1.78212,1.82009 1.8011094,1.8011093 89.395194 0 0 1.8201,1.78212 1.8011094,1.8011093 89.395194 0 0 1.78211,-1.8201 z" fill-rule="nonzero"></path><path transform="matrix(1,0,0,1,-38.525796,-42.105266)" stroke="#000000" fill="none" vector-effect="non-scaling-stroke" data-view-type="laser" data-name="path8" d="m 260.20191,105.73039 9.52549,-0.0375 -0.0645,-2.79005 -9.52496,0.0373 z" fill-rule="nonzero"></path><path transform="matrix(1,0,0,1,-38.525796,-42.105266)" stroke="#000000" fill="none" vector-effect="non-scaling-stroke" data-view-type="laser" data-name="path10" d="m 242.59895,108.59548 11.62989,-0.0423 -0.0248,-2.78575 -11.62939,0.0423 z" fill-rule="nonzero"></path><path transform="matrix(1,0,0,1,-38.525796,-42.105266)" stroke="#000000" fill="none" vector-effect="non-scaling-stroke" data-view-type="laser" data-name="path9" d="m 226.04704,105.81575 9.54043,-0.0375 -0.0645,-2.79083 -9.54044,0.0374 z" fill-rule="nonzero"></path><path transform="matrix(1,0,0,1,-35.51401,-57.676965)" stroke="#fe0002" fill="none" vector-effect="non-scaling-stroke" data-view-type="laser" data-name="path14" d="m 220.5656,162.05733 h 3.86 v 4.968 l 7.985,0.106 v -5.074 h 4.015 v -3.862 h -15.86 z" fill-rule="nonzero"></path><path transform="matrix(1,0,0,1,-39.024239,-56.879053)" stroke="#fe0002" fill="none" vector-effect="non-scaling-stroke" data-view-type="laser" data-name="path14-0" d="m 258.58877,161.25941 h 3.86 v 4.968 l 7.985,0.106 v -5.074 h 4.015 v -3.862 h -15.85983 z" fill-rule="nonzero"></path></svg>